HIERARCHY
ROOT Hips
{
    OFFSET 0.000000 0.000000 0.000000
    CHANNELS 6 Xposition Yposition Zposition Zrotation Xrotation Yrotation
    JOINT Spine
    {
        OFFSET -0.000000 0.076824 0.000000
        CHANNELS 3 Zrotation Xrotation Yrotation
        JOINT Spine1
        {
            OFFSET -0.000000 0.205639 0.000000
            CHANNELS 3 Zrotation Xrotation Yrotation
            JOINT Neck
            {
                OFFSET -0.000000 0.204794 0.018618
                CHANNELS 3 Zrotation Xrotation Yrotation
                JOINT Head
                {
                    OFFSET -0.000000 0.131164 -0.018738
                    CHANNELS 3 Zrotation Xrotation Yrotation
                    End Site
                    {
                        OFFSET -0.000000 0.187377 0.000000
                    }
                }
            }
            JOINT LeftShoulder
            {
                OFFSET 0.037892 0.189814 -0.002396
                CHANNELS 3 Zrotation Xrotation Yrotation
                JOINT LeftArm
                {
                    OFFSET 0.104721 0.000000 0.000000
                    CHANNELS 3 Zrotation Xrotation Yrotation
                    JOINT LeftForeArm
                    {
                        OFFSET 0.316555 0.000000 0.000000
                        CHANNELS 3 Zrotation Xrotation Yrotation
                        JOINT LeftHand
                        {
                            OFFSET 0.270628 0.000000 0.000000
                            CHANNELS 3 Zrotation Xrotation Yrotation
                            JOINT LeftHandThumb1
                            {
                                OFFSET 0.023422 -0.014053 0.046844
                                CHANNELS 3 Zrotation Xrotation Yrotation
                                JOINT LeftHandThumb2
                                {
                                    OFFSET 0.028107 0.000000 0.000000
                                    CHANNELS 3 Zrotation Xrotation Yrotation
                                    JOINT LeftHandThumb3
                                    {
                                        OFFSET 0.028107 0.000000 0.000000
                                        CHANNELS 3 Zrotation Xrotation Yrotation
                                        End Site
                                        {
                                            OFFSET 0.026333 0.000000 0.000000
                                        }
                                    }
                                }
                            }
                            JOINT LeftHandIndex1
                            {
                                OFFSET 0.084320 0.000000 0.032791
                                CHANNELS 3 Zrotation Xrotation Yrotation
                                JOINT LeftHandIndex2
                                {
                                    OFFSET 0.046844 0.000000 0.000000
                                    CHANNELS 3 Zrotation Xrotation Yrotation
                                    JOINT LeftHandIndex3
                                    {
                                        OFFSET 0.023422 0.000000 0.000000
                                        CHANNELS 3 Zrotation Xrotation Yrotation
                                        End Site
                                        {
                                            OFFSET 0.021944 0.000000 0.000000
                                        }
                                    }
                                }
                            }
                            JOINT LeftHandMiddle1
                            {
                                OFFSET 0.084320 0.000000 0.010868
                                CHANNELS 3 Zrotation Xrotation Yrotation
                                JOINT LeftHandMiddle2
                                {
                                    OFFSET 0.051529 0.000000 0.000000
                                    CHANNELS 3 Zrotation Xrotation Yrotation
                                    JOINT LeftHandMiddle3
                                    {
                                        OFFSET 0.028107 0.000000 0.000000
                                        CHANNELS 3 Zrotation Xrotation Yrotation
                                        End Site
                                        {
                                            OFFSET 0.026333 0.000000 0.000000
                                        }
                                    }
                                }
                            }
                            JOINT LeftHandRing1
                            {
                                OFFSET 0.079635 0.000000 -0.010868
                                CHANNELS 3 Zrotation Xrotation Yrotation
                                JOINT LeftHandRing2
                                {
                                    OFFSET 0.046844 0.000000 0.000000
                                    CHANNELS 3 Zrotation Xrotation Yrotation
                                    JOINT LeftHandRing3
                                    {
                                        OFFSET 0.023422 0.000000 0.000000
                                        CHANNELS 3 Zrotation Xrotation Yrotation
                                        End Site
                                        {
                                            OFFSET 0.021944 0.000000 0.000000
                                        }
                                    }
                                }
                            }
                            JOINT LeftHandPinky1
                            {
                                OFFSET 0.074951 0.000000 -0.032791
                                CHANNELS 3 Zrotation Xrotation Yrotation
                                JOINT LeftHandPinky2
                                {
                                    OFFSET 0.037475 0.000000 0.000000
                                    CHANNELS 3 Zrotation Xrotation Yrotation
                                    JOINT LeftHandPinky3
                                    {
                                        OFFSET 0.018738 0.000000 0.000000
                                        CHANNELS 3 Zrotation Xrotation Yrotation
                                        End Site
                                        {
                                            OFFSET 0.017555 0.000000 0.000000
                                        }
                                    }
                                }
                            }
                        }
                    }
                }
            }
            JOINT RightShoulder
            {
                OFFSET -0.036963 0.189814 -0.002396
                CHANNELS 3 Zrotation Xrotation Yrotation
                JOINT RightArm
                {
                    OFFSET -0.104721 0.000000 0.000000
                    CHANNELS 3 Zrotation Xrotation Yrotation
                    JOINT RightForeArm
                    {
                        OFFSET -0.316555 0.000000 0.000000
                        CHANNELS 3 Zrotation Xrotation Yrotation
                        JOINT RightHand
                        {
                            OFFSET -0.270628 0.000000 0.000000
                            CHANNELS 3 Zrotation Xrotation Yrotation
                            JOINT RightHandThumb1
                            {
                                OFFSET -0.023422 -0.014053 0.046844
                                CHANNELS 3 Zrotation Xrotation Yrotation
                                JOINT RightHandThumb2
                                {
                                    OFFSET -0.028107 0.000000 0.000000
                                    CHANNELS 3 Zrotation Xrotation Yrotation
                                    JOINT RightHandThumb3
                                    {
                                        OFFSET -0.028107 0.000000 0.000000
                                        CHANNELS 3 Zrotation Xrotation Yrotation
                                        End Site
                                        {
                                            OFFSET -0.026333 0.000000 0.000000
                                        }
                                    }
                                }
                            }
                            JOINT RightHandIndex1
                            {
                                OFFSET -0.084320 0.000000 0.032791
                                CHANNELS 3 Zrotation Xrotation Yrotation
                                JOINT RightHandIndex2
                                {
                                    OFFSET -0.046844 0.000000 0.000000
                                    CHANNELS 3 Zrotation Xrotation Yrotation
                                    JOINT RightHandIndex3
                                    {
                                        OFFSET -0.023422 0.000000 0.000000
                                        CHANNELS 3 Zrotation Xrotation Yrotation
                                        End Site
                                        {
                                            OFFSET -0.021944 0.000000 0.000000
                                        }
                                    }
                                }
                            }
                            JOINT RightHandMiddle1
                            {
                                OFFSET -0.084320 0.000000 0.010868
                                CHANNELS 3 Zrotation Xrotation Yrotation
                                JOINT RightHandMiddle2
                                {
                                    OFFSET -0.051529 0.000000 0.000000
                                    CHANNELS 3 Zrotation Xrotation Yrotation
                                    JOINT RightHandMiddle3
                                    {
                                        OFFSET -0.028107 0.000000 0.000000
                                        CHANNELS 3 Zrotation Xrotation Yrotation
                                        End Site
                                        {
                                            OFFSET -0.026333 0.000000 0.000000
                                        }
                                    }
                                }
                            }
                            JOINT RightHandRing1
                            {
                                OFFSET -0.079635 0.000000 -0.010868
                                CHANNELS 3 Zrotation Xrotation Yrotation
                                JOINT RightHandRing2
                                {
                                    OFFSET -0.046844 0.000000 0.000000
                                    CHANNELS 3 Zrotation Xrotation Yrotation
                                    JOINT RightHandRing3
                                    {
                                        OFFSET -0.023422 0.000000 0.000000
                                        CHANNELS 3 Zrotation Xrotation Yrotation
                                        End Site
                                        {
                                            OFFSET -0.021944 0.000000 0.000000
                                        }
                                    }
                                }
                            }
                            JOINT RightHandPinky1
                            {
                                OFFSET -0.074951 0.000000 -0.032791
                                CHANNELS 3 Zrotation Xrotation Yrotation
                                JOINT RightHandPinky2
                                {
                                    OFFSET -0.037475 0.000000 0.000000
                                    CHANNELS 3 Zrotation Xrotation Yrotation
                                    JOINT RightHandPinky3
                                    {
                                        OFFSET -0.018738 0.000000 0.000000
                                        CHANNELS 3 Zrotation Xrotation Yrotation
                                        End Site
                                        {
                                            OFFSET -0.017555 0.000000 0.000000
                                        }
                                    }
                                }
                            }
                        }
                    }
                }
            }
        }
    }
    JOINT LeftUpLeg
    {
        OFFSET 0.093688 0.000000 0.000000
        CHANNELS 3 Zrotation Xrotation Yrotation
        JOINT LeftLeg
        {
            OFFSET -0.000000 -0.377687 0.000000
            CHANNELS 3 Zrotation Xrotation Yrotation
            JOINT LeftFoot
            {
                OFFSET -0.000000 -0.399231 0.000000
                CHANNELS 3 Zrotation Xrotation Yrotation
                JOINT LeftToeBase
                {
                    OFFSET -0.000000 -0.060897 0.140533
                    CHANNELS 3 Zrotation Xrotation Yrotation
                    End Site
                    {
                        OFFSET -0.000000 0.000000 0.037475
                    }
                }
            }
        }
    }
    JOINT RightUpLeg
    {
        OFFSET -0.093688 0.000000 0.000000
        CHANNELS 3 Zrotation Xrotation Yrotation
        JOINT RightLeg
        {
            OFFSET -0.000000 -0.377687 0.000000
            CHANNELS 3 Zrotation Xrotation Yrotation
            JOINT RightFoot
            {
                OFFSET -0.000000 -0.399231 0.000000
                CHANNELS 3 Zrotation Xrotation Yrotation
                JOINT RightToeBase
                {
                    OFFSET -0.000000 -0.060897 0.140533
                    CHANNELS 3 Zrotation Xrotation Yrotation
                    End Site
                    {
                        OFFSET -0.000000 0.000000 0.037475
                    }
                }
            }
        }
    }
}
MOTION
Frames:    6
Frame Time:    0.040000
0.289274    0.122268    -0.150028    -105.051514    -7.497361    -110.481789    -3.719242    1.78649    9.935286    20.343775    23.895407    -1.0619    -17.560013    -4.886084    -15.170207    13.206894    -0.833344    -10.442401    5.704666    -4.758587    13.555169    -7.404315    41.252735    -16.10474    0.0    32.038345    15.090529    24.200974    -9.01133    0.0    0.267173    -6.920298    -6.839491    0.0    0.0    0.0    0.0    0.0    0.0    -8.918612    0.0    0.0    -17.837225    0.0    0.0    -8.918612    0.0    0.0    -1.249255    0.0    0.0    -11.950942    0.0    0.0    -5.975471    0.0    0.0    6.420101    0.0    -0.0    -6.064656    0.0    0.0    -3.032328    0.0    0.0    14.32186    0.0    -0.0    0.0    0.0    0.0    0.0    0.0    0.0    -38.945362    -10.762733    -12.22649    4.306534    6.557345    17.436661    0.0    60.818569    -10.0    -18.471674    -9.763906    0.0    0.497617    -0.055475    0.4127    0.0    0.0    0.0    0.0    0.0    0.0    0.726855    0.0    -0.0    1.453709    0.0    -0.0    0.726855    0.0    -0.0    -0.757141    0.095141    -2.400477    0.973988    0.0    -0.0    0.486993    0.0    -0.0    -2.235859    0.252315    -4.797701    0.494258    0.0    -0.0    0.24713    0.0    -0.0    -3.751164    0.478732    -7.262529    0.0    0.0    0.0    0.0    0.0    0.0    8.907912    -35.0    -1.938444    -169.873871    55.927635    160.758865    -5.0    11.917443    1.47415    1.417996    4.424808    -3.409787    -27.686708    14.017957    -14.891833    0.2    0.0    1.0    5.0    6.867927    0.0    -1.157034    -47.383556    -9.650192
0.289323    0.122269    -0.149998    -105.053886    -7.496145    -110.466492    -3.700773    1.816831    9.923072    20.322178    23.877878    -1.058161    -17.5912    -5.020532    -15.180682    13.188254    -0.684255    -10.445853    5.665678    -4.805665    13.591385    -7.329949    41.320415    -16.148006    0.0    32.090744    15.092418    24.248735    -9.058088    0.0    0.138964    -6.89797    -6.925084    0.0    0.0    0.0    0.0    0.0    0.0    -8.944613    0.0    0.0    -17.889223    0.0    0.0    -8.944613    0.0    0.0    -1.276076    0.0    0.0    -11.985781    0.0    0.0    -5.99289    0.0    0.0    6.392461    0.0    -0.0    -6.082336    0.0    0.0    -3.041168    0.0    0.0    14.293379    0.0    -0.0    0.0    0.0    0.0    0.0    0.0    0.0    -38.943756    -10.781207    -12.256349    4.29791    6.533087    17.446112    0.0    60.810966    -10.0    -18.480776    -9.606602    0.0    0.262919    0.008687    0.166955    0.0    0.0    0.0    0.0    0.0    0.0    0.383595    0.0    -0.0    0.767189    0.0    -0.0    0.383595    0.0    -0.0    -0.978398    0.105783    -2.558261    0.514017    0.0    -0.0    0.257008    0.0    -0.0    -2.334323    0.272219    -5.113305    0.260844    0.0    -0.0    0.130422    0.0    -0.0    -3.722173    0.506687    -7.740956    0.0    0.0    0.0    0.0    0.0    0.0    8.932768    -35.0    -1.829373    -170.007217    55.946407    160.90715    -5.0    11.878119    1.463086    1.443303    4.47126    -3.470033    -27.686169    14.019264    -14.874415    0.2    0.0    1.0    5.0    7.078512    0.0    -1.307641    -47.643719    -10.229298
0.289406    0.122194    -0.150001    -105.044289    -7.464749    -110.477959    -3.648207    1.846297    9.930894    20.298445    23.862181    -1.047576    -17.569046    -4.995894    -15.195478    13.156583    -0.725313    -10.469625    5.588035    -4.849152    13.56483    -7.281793    41.364185    -16.093468    0.0    32.046841    15.075549    24.229647    -8.982334    0.0    0.235909    -6.969633    -6.913657    0.0    0.0    0.0    0.0    0.0    0.0    -9.008763    0.0    0.0    -18.017527    0.0    0.0    -9.008763    0.0    0.0    -1.318686    0.0    0.0    -12.071743    0.0    0.0    -6.03587    0.0    0.0    6.371389    0.0    -0.0    -6.125958    0.0    0.0    -3.062979    0.0    0.0    14.294499    0.0    -0.0    0.0    0.0    0.0    0.0    0.0    0.0    -38.981178    -10.790459    -12.317575    4.312661    6.94706    17.489834    0.0    60.522675    -10.0    -18.410259    -9.607479    0.0    0.492968    -0.071911    0.431409    0.0    0.0    0.0    0.0    0.0    0.0    0.68557    0.0    -0.0    1.37114    0.0    -0.0    0.68557    0.0    -0.0    -0.781004    0.095134    -2.393838    0.918666    0.0    -0.0    0.459332    0.0    -0.0    -2.242336    0.251403    -4.784475    0.466185    0.0    -0.0    0.233093    0.0    -0.0    -3.739807    0.475955    -7.24261    0.0    0.0    0.0    0.0    0.0    0.0    9.013188    -35.0    -1.730991    -170.073273    55.964634    160.984085    -5.0    11.890608    1.467629    1.44618    4.456299    -3.479913    -27.634472    14.002754    -14.830961    0.2    0.0    1.0    5.0    7.102425    0.0    -1.293597    -47.481258    -10.241197
0.29256    0.119814    -0.152036    -104.812149    -6.580898    -110.662292    -2.937001    2.146351    10.146438    20.535637    23.749537    -1.007045    -17.803688    -4.927619    -15.190428    13.290716    -0.910897    -10.387503    4.603408    -5.294136    12.969753    -7.276034    38.902702    -15.478742    0.0    35.82502    17.169088    25.145805    -10.600986    0.0    -0.029023    -6.812232    -6.982278    0.0    0.0    0.0    0.0    0.0    0.0    -9.288804    0.0    0.0    -18.577608    0.0    0.0    -9.288804    0.0    0.0    -1.504208    0.0    0.0    -12.446998    0.0    0.0    -6.223497    0.0    0.0    6.280384    0.0    -0.0    -6.316386    0.0    0.0    -3.158194    0.0    0.0    14.300873    0.0    -0.0    0.0    0.0    0.0    0.0    0.0    0.0    -38.455326    -11.094395    -11.877974    4.046751    6.602396    17.107838    0.0    60.921185    -10.0    -18.62804    -9.796519    0.0    0.631917    -0.042423    0.487519    0.0    0.0    0.0    0.0    0.0    0.0    0.748604    0.0    -0.0    1.497209    0.0    -0.0    0.748604    0.0    -0.0    -0.695155    0.091014    -2.405659    1.003133    0.0    -0.0    0.501565    0.0    -0.0    -2.133832    0.242513    -4.808276    0.509048    0.0    -0.0    0.254525    0.0    -0.0    -3.608142    0.461483    -7.278965    0.0    0.0    0.0    0.0    0.0    0.0    10.262269    -35.0    -1.255754    -170.428619    56.430836    161.691452    -5.0    12.384707    1.052164    1.43817    4.442903    -3.460659    -26.124493    13.694122    -13.886188    0.164629    0.0    1.0    5.0    8.479107    0.0    -1.146856    -44.782227    -10.921807
0.289407    0.122224    -0.14992    -105.050926    -7.478375    -110.458817    -3.648616    1.855729    9.91381    20.283752    23.856529    -1.049123    -17.546049    -4.964492    -15.1863    13.144089    -0.793324    -10.46363    5.589094    -4.852752    13.575226    -7.363674    39.538181    -16.189901    0.0    34.879509    16.394064    24.860548    -10.184408    0.0    -0.059841    -6.794169    -6.990482    0.0    0.0    0.0    0.0    0.0    0.0    -9.274617    0.0    0.0    -18.549236    0.0    0.0    -9.274617    0.0    0.0    -1.549357    0.0    0.0    -12.427989    0.0    0.0    -6.213993    0.0    0.0    6.1759    0.0    -0.0    -6.306739    0.0    0.0    -3.153369    0.0    0.0    14.135259    0.0    -0.0    0.0    0.0    0.0    0.0    0.0    0.0    -38.970932    -10.787642    -12.296676    4.306572    6.801694    17.462839    0.0    60.60236    -10.0    -18.473742    -9.646767    0.0    0.373614    -0.095466    0.380957    0.0    0.0    0.0    0.0    0.0    0.0    0.736748    0.0    -0.0    1.473496    0.0    -0.0    0.736748    0.0    -0.0    -0.705142    0.092157    -2.426687    0.987245    0.0    -0.0    0.493622    0.0    -0.0    -2.141846    0.245247    -4.850305    0.500986    0.0    -0.0    0.250494    0.0    -0.0    -3.613975    0.466315    -7.342589    0.0    0.0    0.0    0.0    0.0    0.0    9.007618    -35.0    -1.739447    -170.047928    55.955254    160.996323    -5.0    11.902574    1.432029    1.467724    4.457699    -3.536884    -27.659863    14.018068    -14.802976    0.2    0.0    1.0    5.0    6.926581    0.0    -1.179388    -47.277435    -9.802473
0.289394    0.122212    -0.149916    -105.050903    -7.479489    -110.460526    -3.648067    1.848963    9.914175    20.283001    23.863079    -1.049985    -17.523151    -4.970121    -15.18516    13.110974    -0.789142    -10.471479    5.593144    -4.839081    13.549623    -7.382642    39.497978    -16.14484    0.0    34.902512    16.376377    24.879997    -10.119263    0.0    -0.100945    -6.665053    -6.898549    0.0    0.0    0.0    0.0    0.0    0.0    -9.051345    0.0    0.0    -18.10269    0.0    0.0    -9.051345    0.0    0.0    -1.383039    0.0    0.0    -12.1288    0.0    0.0    -6.0644    0.0    0.0    6.285269    0.0    -0.0    -6.154914    0.0    0.0    -3.077458    0.0    0.0    14.185946    0.0    -0.0    0.0    0.0    0.0    0.0    0.0    0.0    -38.956966    -10.784564    -12.268976    4.289912    6.872606    17.431267    0.0    60.553726    -10.0    -18.415531    -9.613641    0.0    0.12691    -0.331648    0.524923    0.0    0.0    0.0    0.0    0.0    0.0    0.57946    0.0    -0.0    1.158919    0.0    -0.0    0.57946    0.0    -0.0    -0.857047    0.101256    -2.497278    0.776478    0.0    -0.0    0.388238    0.0    -0.0    -2.28779    0.264968    -4.991254    0.394031    0.0    -0.0    0.197016    0.0    -0.0    -3.753026    0.498531    -7.555758    0.0    0.0    0.0    0.0    0.0    0.0    8.996673    -35.0    -1.735447    -170.06485    55.955017    160.983429    -5.0    11.922577    1.415309    1.392502    4.454126    -3.337746    -27.657925    14.010827    -14.820897    0.2    0.0    1.0    5.0    7.066673    0.0    -1.278905    -47.454418    -10.185652
